M48
INCH
T01C0.0191
T02C0.0354
T03C0.0551
%
T01
X+013583Y+016441
X+018708Y+019441
X+015833Y+008816
T02
X+017083Y+016441
X+017083Y+015441
X+015083Y+015441
X+015083Y+016441
X+015083Y+017441
X+015083Y+018441
X+015083Y+019441
X+015083Y+020441
X+015583Y+022441
X+014583Y+022441
X+012583Y+022441
X+011583Y+022441
X+012083Y+020441
X+012083Y+019441
X+012083Y+018441
X+012083Y+017441
X+012083Y+016441
X+012083Y+015441
X+012083Y+014441
X+012083Y+013441
X+012083Y+012441
X+012083Y+011441
X+012083Y+010441
X+012083Y+009441
X+012083Y+008441
X+012083Y+007441
X+012083Y+006441
X+012083Y+004441
X+013083Y+004441
X+014083Y+004441
X+015083Y+004441
X+015083Y+006441
X+015083Y+007441
X+015083Y+008441
X+015083Y+009441
X+015083Y+010441
X+015083Y+011441
X+015083Y+012441
X+015083Y+013441
X+015083Y+014441
X+017083Y+018441
X+017083Y+019441
X+020083Y+014441
X+022083Y+014441
X+022583Y+010441
X+022083Y+009441
X+022083Y+008441
X+022583Y+007441
X+022083Y+006441
X+020083Y+006441
X+019583Y+007441
X+020083Y+008441
X+020083Y+009441
X+019583Y+010441
X+017083Y+010441
X+017083Y+009441
X+017083Y+008191
X+017083Y+005191
X+010083Y+009441
X+010083Y+010441
X+008083Y+010441
X+008083Y+009441
X+007583Y+008441
X+007583Y+007441
X+005583Y+007441
X+005583Y+008441
X+005083Y+009441
X+005083Y+010441
X+005083Y+014941
X+005083Y+015941
X+005583Y+016941
X+005583Y+017941
X+005083Y+018941
X+005083Y+019941
X+008083Y+019941
X+008083Y+018941
X+007583Y+017941
X+007583Y+016941
X+008083Y+015941
X+008083Y+014941
X+010083Y+015441
X+010083Y+016441
X+010083Y+018441
X+010083Y+019441
T03
X+009087Y+022441
X+007087Y+022441
X+005087Y+022441
X+005087Y+012441
X+007087Y+012441
X+009087Y+012441
X+018079Y+012441
X+020079Y+012441
X+022079Y+012441
X+022079Y+022441
X+020079Y+022441
X+018079Y+022441
T00
M30
