G04 DipTrace 4.3.0.4*
G04 TopMask.gbr*
%MOIN*%
G04 #@! TF.FileFunction,Soldermask,Top*
G04 #@! TF.Part,Single*
%ADD27C,0.103937*%
%ADD29R,0.103937X0.103937*%
%ADD31C,0.062992*%
%ADD33R,0.062992X0.062992*%
%FSLAX26Y26*%
G04*
G70*
G90*
G75*
G01*
G04 TopMask*
%LPD*%
D33*
X1708269Y1644094D3*
D31*
Y1544094D3*
D33*
Y1944094D3*
D31*
Y1844094D3*
X758269Y744097D3*
X558269Y744092D3*
X1008269Y1044094D3*
Y944094D3*
X558269Y844094D3*
X758269D3*
Y1694094D3*
X558269D3*
Y1794094D3*
X758269D3*
X1008269Y1644094D3*
Y1544094D3*
D33*
Y1944094D3*
D31*
Y1844094D3*
X2208269Y1444094D3*
X2008269D3*
Y944094D3*
X2208269D3*
X2008269Y844094D3*
X2208269D3*
Y644094D3*
X2008269D3*
D33*
X1708269Y1044094D3*
D31*
Y944094D3*
X1508269Y2044094D3*
D33*
X1208269D3*
D29*
X908663Y2244094D3*
D27*
X708663D3*
X508663D3*
D31*
X1208269Y944094D3*
Y844094D3*
Y744094D3*
Y644094D3*
X1508269D3*
Y744094D3*
Y844094D3*
Y944094D3*
X1208269Y1644094D3*
Y1544094D3*
Y1444094D3*
Y1344094D3*
X1508269D3*
Y1444094D3*
Y1544094D3*
Y1644094D3*
D29*
X908663Y1244094D3*
D27*
X708663D3*
X508663D3*
D31*
X1508269Y1944094D3*
X1208269D3*
Y1844094D3*
X1508269D3*
X808269Y1044094D3*
X508269D3*
Y944094D3*
X808269D3*
X1508269Y1044094D3*
X1208269D3*
X508269Y1494094D3*
X808269D3*
Y1594094D3*
X508269D3*
X1508269Y1744094D3*
X1208269D3*
X508269Y1994094D3*
X808269D3*
X508269Y1894094D3*
X808269D3*
X1508269Y1244094D3*
X1208269D3*
X2258269Y1044094D3*
X1958269D3*
X2258269Y744094D3*
X1958269D3*
X1508269Y1144094D3*
X1208269D3*
X1708272Y519094D3*
X1708266Y819094D3*
D29*
X2207875Y1244094D3*
D27*
X2007875D3*
X1807875D3*
D31*
X1208269Y444094D3*
X1308269D3*
X1508269D3*
X1408269D3*
X1558269Y2244094D3*
X1458269D3*
X1158269D3*
X1258269D3*
D29*
X2207875D3*
D27*
X2007875D3*
X1807875D3*
M02*
